:SAMPLES-PER-SECOND 30
:FULLY-SPECIFIED
:DEGREES
92
root  34.83916455 36.57883772 -14.32142483 10.25901318 -3.572785139 3.21186924
lowerback  -8.835120201 0.318762958 -0.4184398949
upperback  -3.809720039 0.9917910099 -3.973629951
thorax  1.069039941 0.6703730226 -3.780450106
lowerneck  -11.93799973 -7.862949848 -5.0302701
upperneck  11.87440014 -10.72310066 7.53869009
head  6.247429848 -4.79046011 2.210870028
lclavicle  0 -4.497500157e-015 -2.743230041e-014
lhumerus  -48.12889862 31.2385006 61.91049957
lradius  -0.03489765897 -6.507048965e-006 29.09020233
lwrist  3.192251654e-007 -3.790274832e-007 -29.68280029
lhand  -3.515262176e-031 -36.98609924 -10.67749977
lfingers  90 7.125020027 -90
lthumb  94.85697174 -25.51019669 101.1613998
rclavicle  0 -4.497500157e-015 -2.743230041e-014
rhumerus  20.11510086 -19.68149948 -46.35580063
rradius  -5.16745672e-007 2.214343908e-008 83.9417038
rwrist  0.0006954420824 -0.004670973402 -176.072998
rhand  -3.082520673e-031 3.81517005 -6.705230236
rfingers  -90 -7.125020027 -90
rthumb  -84.79081726 -9.212733269 -60.34080887
rfemur  -12.10867405 15.24790859 12.75601768
rtibia  -0.2114249915 -0.85201478 18.7225399
rfoot  0.9243490696 -21.36800766 -36.37002182
rtoes  4.150123596 19.56860352 -102.2158813
lfemur  -6.71890974 -15.84509277 -20.84329796
ltibia  4.789805889 0.4118586779 10.73536587
lfoot  0.462246269 -24.06039047 35.49397278
ltoes  -8.520002365 -18.16207123 -115.6692429
93
root  34.83925767 36.57894285 -14.31820787 10.25810146 -3.501424789 3.256601334
lowerback  -8.848211288 0.3347709179 -0.3487110138
upperback  -3.832220078 1.010139942 -3.98713994
thorax  1.055189967 0.6798049808 -3.832410097
lowerneck  -11.8526001 -7.89195013 -5.051229954
upperneck  11.84160042 -10.76290035 7.568210125
head  6.22799015 -4.810669899 2.222660065
lclavicle  0 -4.497500157e-015 -2.743230041e-014
lhumerus  -48.1631012 31.17429924 61.89239883
lradius  -0.03687249869 -6.507048965e-006 29.05179977
lwrist  3.192251654e-007 -3.790274832e-007 -29.6595974
lhand  -3.518274893e-031 -37.04510117 -10.63290024
lfingers  90 7.125020027 -90
lthumb  94.87494659 -25.46427536 101.2202225
rclavicle  0 -4.497500157e-015 -2.743230041e-014
rhumerus  21.45120049 -19.70879936 -46.13959885
rradius  -5.16745672e-007 2.214343908e-008 82.91619873
rwrist  0.0006954420824 -0.004670973402 -175.6909943
rhand  -3.068049448e-031 3.889300108 -6.919859886
rfingers  -90 -7.125020027 -90
rthumb  -84.88097382 -9.030612946 -60.2854805
rfemur  -12.1244297 15.24088955 12.73491192
rtibia  -0.2433126718 -0.8526107073 18.78547478
rfoot  0.8918703198 -21.35349846 -36.42007065
rtoes  4.189779758 19.56942558 -102.3342285
lfemur  -6.531907082 -15.85703754 -20.97533035
ltibia  4.970200062 0.4310137331 10.43203354
lfoot  0.4795105755 -23.98426819 35.52718735
ltoes  -8.451836586 -18.19304657 -115.450737
94
root  34.83935379 36.57903596 -14.31696284 10.25527859 -3.440722466 3.28642869
lowerback  -8.865539551 0.3533520401 -0.2728575468
upperback  -3.848910093 1.032269955 -4.013420105
thorax  1.050279975 0.6912040114 -3.900759935
lowerneck  -11.7741003 -7.916930199 -5.032489777
upperneck  11.77740002 -10.79880047 7.573410034
head  6.195960045 -4.830049992 2.221250057
lclavicle  0 -4.497500157e-015 -2.743230041e-014
lhumerus  -48.21770096 31.15330124 61.83399963
lradius  -0.03886605799 -6.507048965e-006 29.03750229
lwrist  3.192251654e-007 -3.790274832e-007 -29.66609955
lhand  -3.517234117e-031 -37.04869843 -10.64490032
lfingers  90 7.125020027 -90
lthumb  94.87930298 -25.47603416 101.2253342
rclavicle  0 -4.497500157e-015 -2.743230041e-014
rhumerus  22.80730057 -19.75379944 -46.0461998
rradius  -5.16745672e-007 2.214343908e-008 81.85759735
rwrist  0.0006954420824 -0.004670973402 -175.1860046
rhand  -3.072766787e-031 4.158299923 -6.847420216
rfingers  -90 -7.125020027 -90
rthumb  -84.78086853 -9.109478951 -60.01714325
rfemur  -12.13861465 15.28675747 12.7294035
rtibia  -0.2715330422 -0.8313905001 18.83794785
rfoot  0.8651181459 -21.29801369 -36.49757385
rtoes  4.200630188 19.57024765 -102.3666153
lfemur  -6.491017818 -15.921381 -21.02263451
ltibia  5.022428989 0.4038876891 10.35822392
lfoot  0.4667481482 -23.89536095 35.49592972
ltoes  -8.453364372 -18.19235611 -115.4556274
95
root  34.83945892 36.57911706 -14.31606623 10.24645233 -3.367993593 3.303297758
lowerback  -8.879980087 0.3634910882 -0.248269245
upperback  -3.858880043 1.047009945 -4.033329964
thorax  1.049530029 0.6993479729 -3.934050083
lowerneck  -11.75129986 -7.944560051 -4.991710186
upperneck  11.75549984 -10.84029865 7.559289932
head  6.184760094 -4.850090027 2.207289934
lclavicle  0 -4.497500157e-015 -2.743230041e-014
lhumerus  -48.26340103 31.21349907 61.73870087
lradius  -0.04086678848 -6.507048965e-006 28.99479866
lwrist  3.192251654e-007 -3.790274832e-007 -29.82220078
lhand  -3.511786913e-031 -36.98479843 -10.71949959
lfingers  90 7.125020027 -90
lthumb  94.8653183 -25.5515213 101.1637421
rclavicle  0 -4.497500157e-015 -2.743230041e-014
rhumerus  24.10350227 -19.93059921 -45.94419861
rradius  -5.16745672e-007 2.214343908e-008 80.72589874
rwrist  0.0006954420824 -0.004670973402 -175.1759949
rhand  -3.078717851e-031 3.989739895 -6.760369778
rfingers  -90 -7.125020027 -90
rthumb  -84.77701569 -9.175003052 -60.17472839
rfemur  -12.11648178 15.31534767 12.72849751
rtibia  -0.2865729034 -0.8047029972 18.84117508
rfoot  0.861989677 -21.22293663 -36.56707382
rtoes  4.197864532 19.57106018 -102.3583603
lfemur  -6.466157913 -15.93922138 -21.05173111
ltibia  5.049880028 0.3756965399 10.33031368
lfoot  0.4407328069 -23.82574844 35.38925171
ltoes  -8.485984802 -18.17756844 -115.5601501
96
root  34.83956705 36.57918915 -14.31505999 10.24279308 -3.30523777 3.315121651
lowerback  -8.882040024 0.3692949116 -0.2462887317
upperback  -3.8724401 1.056519985 -4.039549828
thorax  1.037369967 0.7047939897 -3.940860033
lowerneck  -11.74849987 -7.973430157 -4.999780178
upperneck  11.76609993 -10.88089943 7.576690197
head  6.189702511 -4.867639542 2.211447239
lclavicle  0 -4.497500157e-015 -2.743230041e-014
lhumerus  -48.33330154 31.22450066 61.69620132
lradius  -0.04288928956 -6.507048965e-006 29.00289917
lwrist  3.192251654e-007 -3.790274832e-007 -29.89039993
lhand  -3.515113215e-031 -36.9966011 -10.67780018
lfingers  90 7.125020027 -90
lthumb  94.86194611 -25.51012802 101.1726227
rclavicle  0 -4.497500157e-015 -2.743230041e-014
rhumerus  25.51550102 -20.08240128 -45.90439987
rradius  -5.16745672e-007 2.214343908e-008 79.44450378
rwrist  0.0006954420824 -0.004670973402 -175.1410065
rhand  -3.094559782e-031 4.305520058 -6.522260189
rfingers  -90 -7.125020027 -90
rthumb  -84.58030701 -9.399525642 -59.8468132
rfemur  -12.0807848 15.29262066 12.72952843
rtibia  -0.292554915 -0.8164413571 18.80682182
rfoot  0.8671458364 -21.21847153 -36.60947037
rtoes  4.183006287 19.57185555 -102.3140106
lfemur  -6.447411537 -15.97866535 -21.07377815
ltibia  5.074059486 0.3676792681 10.31598473
lfoot  0.4537927508 -23.81269836 35.37893295
ltoes  -8.508223534 -18.16744614 -115.6314621
97
root  34.83967518 36.57924922 -14.31337041 10.25513458 -3.243391514 3.333704948
lowerback  -8.855150223 0.3830669522 -0.2110879272
upperback  -3.887729883 1.07359004 -4.061739922
thorax  1.00872004 0.7135369778 -3.98277998
lowerneck  -11.7215004 -7.996910095 -4.990960121
upperneck  11.7414999 -10.91619968 7.600309849
head  6.188777924 -4.884318829 2.205596924
lclavicle  0 -4.497500157e-015 -2.743230041e-014
lhumerus  -48.40399933 31.27540016 61.60340118
lradius  -0.04495220259 -6.507048965e-006 28.99150085
lwrist  3.192251654e-007 -3.790274832e-007 -29.94300079
lhand  -3.515213817e-031 -37.00920105 -10.67479992
lfingers  90 7.125020027 -90
lthumb  94.86723328 -25.50673676 101.1858749
rclavicle  0 -4.497500157e-015 -2.743230041e-014
rhumerus  26.78210068 -20.11039734 -45.78229904
rradius  -5.16745672e-007 2.214343908e-008 78.36820221
rwrist  0.0006954420824 -0.004670973402 -174.8560028
rhand  -3.081193125e-031 4.240600109 -6.721439838
rfingers  -90 -7.125020027 -90
rthumb  -84.69727325 -9.223480225 -59.92655563
rfemur  -12.07913303 15.27449608 12.73167992
rtibia  -0.3074599504 -0.8247182369 18.80020332
rfoot  0.8633734584 -21.20214272 -36.65108109
rtoes  4.173572063 19.57262421 -102.2858505
lfemur  -6.51260376 -16.03710938 -21.06202507
ltibia  5.052293301 0.3763105273 10.38535404
lfoot  0.4825718105 -23.86820221 35.39664459
ltoes  -8.487998962 -18.17665291 -115.5666046
98
root  34.83985841 36.57930329 -14.31141651 10.24936676 -3.170184612 3.348545551
lowerback  -8.859470367 0.3955100179 -0.1677405983
upperback  -3.900350094 1.089969993 -4.088729858
thorax  1.000180006 0.7223169804 -4.034130096
lowerneck  -11.71520042 -8.028400421 -4.953390121
upperneck  11.73729992 -10.96360016 7.591350079
head  6.180699825 -4.904970169 2.200079918
lclavicle  0 -4.497500157e-015 -2.743230041e-014
lhumerus  -48.41839981 31.21120071 61.58549881
lradius  -0.04703218117 -6.507048965e-006 28.9679985
lwrist  3.192251654e-007 -3.790274832e-007 -29.92070007
lhand  -3.520417595e-031 -36.9980011 -10.61380005
lfingers  90 7.125020027 -90
lthumb  94.84887695 -25.44721985 101.1682587
rclavicle  0 -4.497500157e-015 -2.743230041e-014
rhumerus  28.05590057 -20.22229958 -45.79119873
rradius  -5.16745672e-007 2.214343908e-008 77.19059753
rwrist  0.0006954420824 -0.004670973402 -174.5050049
rhand  -3.082964053e-031 4.238279819 -6.695139885
rfingers  -90 -7.125020027 -90
rthumb  -84.68448639 -9.246095657 -59.92666626
rfemur  -12.05293751 15.22017956 12.73413467
rtibia  -0.3146776855 -0.829213202 18.79174614
rfoot  0.852422595 -21.19772911 -36.69307327
rtoes  4.174742222 19.57335663 -102.2893448
lfemur  -6.496242046 -16.05848694 -21.07292938
ltibia  5.079737186 0.388335526 10.3559351
lfoot  0.5002831221 -23.88628197 35.3920784
ltoes  -8.468053818 -18.18570518 -115.5026855
